<?xml version="1.0" encoding="UTF-8" standalone="no"?>
<!-- Created with Inkscape (http://www.inkscape.org/) -->

<svg
   width="420mm"
   height="297mm"
   viewBox="0 0 420 297"
   version="1.1"
   id="svg1"
   xml:space="preserve"
   inkscape:version="1.4 (1:1.4+202410161351+e7c3feb100)"
   sodipodi:docname="viz_clima_template.svg"
   inkscape:export-filename="/home/chenkianwee/kianwee_work/get/projects/teach_hvac2arch/docs/png/workshop1/viz_clima_template.jpg"
   inkscape:export-xdpi="96"
   inkscape:export-ydpi="96"
   xmlns:inkscape="http://www.inkscape.org/namespaces/inkscape"
   xmlns:sodipodi="http://sodipodi.sourceforge.net/DTD/sodipodi-0.dtd"
   xmlns="http://www.w3.org/2000/svg"
   xmlns:svg="http://www.w3.org/2000/svg"><sodipodi:namedview
     id="namedview1"
     pagecolor="#ffffff"
     bordercolor="#000000"
     borderopacity="0.25"
     inkscape:showpageshadow="2"
     inkscape:pageopacity="0.0"
     inkscape:pagecheckerboard="0"
     inkscape:deskcolor="#d1d1d1"
     inkscape:document-units="mm"
     showguides="true"
     showgrid="false"
     inkscape:zoom="1.0116647"
     inkscape:cx="589.62226"
     inkscape:cy="108.23745"
     inkscape:window-width="2560"
     inkscape:window-height="1043"
     inkscape:window-x="0"
     inkscape:window-y="0"
     inkscape:window-maximized="1"
     inkscape:current-layer="layer1"><inkscape:grid
       id="grid2"
       units="mm"
       originx="0"
       originy="0"
       spacingx="10"
       spacingy="10"
       empcolor="#0099e5"
       empopacity="0.30196078"
       color="#0099e5"
       opacity="0.14901961"
       empspacing="10"
       enabled="true"
       visible="false" /><sodipodi:guide
       position="10,329.90713"
       orientation="1,0"
       id="guide2"
       inkscape:locked="false" /><sodipodi:guide
       position="410,267.00001"
       orientation="1,0"
       id="guide4"
       inkscape:locked="false" /><sodipodi:guide
       position="42.164384,9.4999466"
       orientation="0,-1"
       id="guide5"
       inkscape:locked="false" /><sodipodi:guide
       position="-30.000001,277"
       orientation="0,-1"
       id="guide6"
       inkscape:locked="false" /><sodipodi:guide
       position="-16.187286,287.00001"
       orientation="0,-1"
       id="guide7"
       inkscape:locked="false" /><sodipodi:guide
       position="143.58142,269.73522"
       orientation="0,-1"
       id="guide50"
       inkscape:locked="false" /><sodipodi:guide
       position="24.041096,189.70623"
       orientation="0,-1"
       id="guide51"
       inkscape:locked="false" /><sodipodi:guide
       position="55.109589,180.12329"
       orientation="0,-1"
       id="guide52"
       inkscape:locked="false" /><sodipodi:guide
       position="31.008985,100.00258"
       orientation="0,-1"
       id="guide53"
       inkscape:locked="false" /><sodipodi:guide
       position="60.683745,89.499941"
       orientation="0,-1"
       id="guide54"
       inkscape:locked="false" /><sodipodi:guide
       position="210.01071,269.73522"
       orientation="1,0"
       id="guide8"
       inkscape:locked="false" /><sodipodi:guide
       position="142.68835,176.31818"
       orientation="1,0"
       id="guide4826"
       inkscape:locked="false" /><sodipodi:guide
       position="276.70154,157.53772"
       orientation="1,0"
       id="guide4827"
       inkscape:locked="false" /></sodipodi:namedview><defs
     id="defs1"><rect
       x="450.95039"
       y="100.13125"
       width="342.96452"
       height="315.49977"
       id="rect12" /><rect
       x="453.62097"
       y="100.13125"
       width="340.07982"
       height="314.96948"
       id="rect9" /><clipPath
       clipPathUnits="userSpaceOnUse"
       id="clipPath10"><rect
         style="fill:#000000;fill-opacity:1;stroke:none;stroke-width:1.00012;stroke-linecap:square;stroke-opacity:1"
         id="rect11"
         width="192.45213"
         height="72.889351"
         x="217.54787"
         y="26.493059" /></clipPath><rect
       x="450.95039"
       y="100.13125"
       width="342.96452"
       height="315.49977"
       id="rect15" /><rect
       x="450.95039"
       y="100.13125"
       width="282.22823"
       height="233.99912"
       id="rect17" /><rect
       x="450.95039"
       y="100.13125"
       width="264.75439"
       height="231.90226"
       id="rect21" /><rect
       x="450.95039"
       y="100.13125"
       width="264.75439"
       height="231.90226"
       id="rect48" /><rect
       x="450.95039"
       y="100.13125"
       width="282.22823"
       height="233.99912"
       id="rect66" /><rect
       x="450.95039"
       y="100.13125"
       width="304.39004"
       height="291.81053"
       id="rect79" /><rect
       x="450.95039"
       y="100.13125"
       width="305.87274"
       height="297.26456"
       id="rect80" /><rect
       x="450.95039"
       y="100.13125"
       width="305.87274"
       height="297.26456"
       id="rect82" /><rect
       x="450.95039"
       y="100.13125"
       width="304.39004"
       height="291.81053"
       id="rect94" /><rect
       x="450.95039"
       y="100.13125"
       width="304.39004"
       height="291.81053"
       id="rect101" /><clipPath
       id="clip477d87xyplot"
       class="plotclip"><rect
         width="1809"
         height="360"
         id="rect2"
         x="0"
         y="0" /></clipPath><clipPath
       id="legend477d87"><rect
         width="327"
         height="29"
         x="0"
         y="0"
         id="rect94-7" /></clipPath><clipPath
       id="clip477d87xyplot-2"
       class="plotclip"><rect
         width="1809"
         height="360"
         id="rect2-9"
         x="0"
         y="0" /></clipPath><clipPath
       id="legend477d87-1"><rect
         width="327"
         height="29"
         x="0"
         y="0"
         id="rect94-2" /></clipPath><clipPath
       id="clip5d3bd9xyplot"
       class="plotclip"><rect
         width="849"
         height="360"
         id="rect2-8"
         x="0"
         y="0" /></clipPath><clipPath
       id="legend5d3bd9"><rect
         width="327"
         height="29"
         x="0"
         y="0"
         id="rect94-1" /></clipPath><clipPath
       id="clip65bc99xyplot"
       class="plotclip"><rect
         width="58.391666"
         height="366"
         id="rect2-0"
         x="0"
         y="0" /></clipPath><clipPath
       id="clip65bc99x2y2plot"
       class="plotclip"><rect
         width="58.391666"
         height="366"
         id="rect3"
         x="0"
         y="0" /></clipPath><clipPath
       id="clip65bc99x3y3plot"
       class="plotclip"><rect
         width="58.391666"
         height="366"
         id="rect4"
         x="0"
         y="0" /></clipPath><clipPath
       id="clip65bc99x4y4plot"
       class="plotclip"><rect
         width="58.391666"
         height="366"
         id="rect5"
         x="0"
         y="0" /></clipPath><clipPath
       id="clip65bc99x5y5plot"
       class="plotclip"><rect
         width="58.391666"
         height="366"
         id="rect6-2"
         x="0"
         y="0" /></clipPath><clipPath
       id="clip65bc99x6y6plot"
       class="plotclip"><rect
         width="58.391666"
         height="366"
         id="rect7"
         x="0"
         y="0" /></clipPath><clipPath
       id="clip65bc99x7y7plot"
       class="plotclip"><rect
         width="58.391666"
         height="366"
         id="rect8"
         x="0"
         y="0" /></clipPath><clipPath
       id="clip65bc99x8y8plot"
       class="plotclip"><rect
         width="58.391666"
         height="366"
         id="rect9-7"
         x="0"
         y="0" /></clipPath><clipPath
       id="clip65bc99x9y9plot"
       class="plotclip"><rect
         width="58.391666"
         height="366"
         id="rect10"
         x="0"
         y="0" /></clipPath><clipPath
       id="clip65bc99x10y10plot"
       class="plotclip"><rect
         width="58.391666"
         height="366"
         id="rect11-6"
         x="0"
         y="0" /></clipPath><clipPath
       id="clip65bc99x11y11plot"
       class="plotclip"><rect
         width="58.391666"
         height="366"
         id="rect12-1"
         x="0"
         y="0" /></clipPath><clipPath
       id="clip65bc99x12y12plot"
       class="plotclip"><rect
         width="58.391666"
         height="366"
         id="rect13"
         x="0"
         y="0" /></clipPath><clipPath
       id="clipe477acxyplot"
       class="plotclip"><rect
         width="58.459721"
         height="366"
         id="rect2-5"
         x="0"
         y="0" /></clipPath><clipPath
       id="clipe477acx2y2plot"
       class="plotclip"><rect
         width="58.459721"
         height="366"
         id="rect3-9"
         x="0"
         y="0" /></clipPath><clipPath
       id="clipe477acx3y3plot"
       class="plotclip"><rect
         width="58.459721"
         height="366"
         id="rect4-9"
         x="0"
         y="0" /></clipPath><clipPath
       id="clipe477acx4y4plot"
       class="plotclip"><rect
         width="58.459721"
         height="366"
         id="rect5-1"
         x="0"
         y="0" /></clipPath><clipPath
       id="clipe477acx5y5plot"
       class="plotclip"><rect
         width="58.459721"
         height="366"
         id="rect6-4"
         x="0"
         y="0" /></clipPath><clipPath
       id="clipe477acx6y6plot"
       class="plotclip"><rect
         width="58.459721"
         height="366"
         id="rect7-9"
         x="0"
         y="0" /></clipPath><clipPath
       id="clipe477acx7y7plot"
       class="plotclip"><rect
         width="58.459721"
         height="366"
         id="rect8-1"
         x="0"
         y="0" /></clipPath><clipPath
       id="clipe477acx8y8plot"
       class="plotclip"><rect
         width="58.459721"
         height="366"
         id="rect9-0"
         x="0"
         y="0" /></clipPath><clipPath
       id="clipe477acx9y9plot"
       class="plotclip"><rect
         width="58.459721"
         height="366"
         id="rect10-7"
         x="0"
         y="0" /></clipPath><clipPath
       id="clipe477acx10y10plot"
       class="plotclip"><rect
         width="58.459721"
         height="366"
         id="rect11-5"
         x="0"
         y="0" /></clipPath><clipPath
       id="clipe477acx11y11plot"
       class="plotclip"><rect
         width="58.459721"
         height="366"
         id="rect12-8"
         x="0"
         y="0" /></clipPath><clipPath
       id="clipe477acx12y12plot"
       class="plotclip"><rect
         width="58.459721"
         height="366"
         id="rect13-7"
         x="0"
         y="0" /></clipPath><clipPath
       id="clipc32fe3polar-for-traces"><path
         d="m 198.5,0 a 198.5,198.5 0 1 0 -397,0 198.5,198.5 0 1 0 397,0 z"
         transform="translate(198.5,198.5)"
         id="path1" /></clipPath><clipPath
       id="clipPath2"><path
         d="m 198.5,0 a 198.5,198.5 0 1 0 -397,0 198.5,198.5 0 1 0 397,0 z"
         transform="translate(198.5,198.5)"
         id="path2" /></clipPath><clipPath
       id="clipPath3"><path
         d="m 198.5,0 a 198.5,198.5 0 1 0 -397,0 198.5,198.5 0 1 0 397,0 z"
         transform="translate(198.5,198.5)"
         id="path3" /></clipPath><clipPath
       id="clipPath4"><path
         d="m 198.5,0 a 198.5,198.5 0 1 0 -397,0 198.5,198.5 0 1 0 397,0 z"
         transform="translate(198.5,198.5)"
         id="path4" /></clipPath><clipPath
       id="clipPath5"><path
         d="m 198.5,0 a 198.5,198.5 0 1 0 -397,0 198.5,198.5 0 1 0 397,0 z"
         transform="translate(198.5,198.5)"
         id="path5" /></clipPath><clipPath
       id="clipPath6"><path
         d="m 198.5,0 a 198.5,198.5 0 1 0 -397,0 198.5,198.5 0 1 0 397,0 z"
         transform="translate(198.5,198.5)"
         id="path6" /></clipPath><clipPath
       id="clipPath7"><path
         d="m 198.5,0 a 198.5,198.5 0 1 0 -397,0 198.5,198.5 0 1 0 397,0 z"
         transform="translate(198.5,198.5)"
         id="path7-3" /></clipPath><clipPath
       id="clipPath8"><path
         d="m 198.5,0 a 198.5,198.5 0 1 0 -397,0 198.5,198.5 0 1 0 397,0 z"
         transform="translate(198.5,198.5)"
         id="path8-7" /></clipPath><clipPath
       id="clipPath9"><path
         d="m 198.5,0 a 198.5,198.5 0 1 0 -397,0 198.5,198.5 0 1 0 397,0 z"
         transform="translate(198.5,198.5)"
         id="path9" /></clipPath><clipPath
       id="clipPath10-5"><path
         d="m 198.5,0 a 198.5,198.5 0 1 0 -397,0 198.5,198.5 0 1 0 397,0 z"
         transform="translate(198.5,198.5)"
         id="path10" /></clipPath><clipPath
       id="clipPath11"><path
         d="m 198.5,0 a 198.5,198.5 0 1 0 -397,0 198.5,198.5 0 1 0 397,0 z"
         transform="translate(198.5,198.5)"
         id="path11" /></clipPath><clipPath
       id="clipPath12"><path
         d="m 198.5,0 a 198.5,198.5 0 1 0 -397,0 198.5,198.5 0 1 0 397,0 z"
         transform="translate(198.5,198.5)"
         id="path12" /></clipPath><clipPath
       id="clipPath13"><path
         d="m 198.5,0 a 198.5,198.5 0 1 0 -397,0 198.5,198.5 0 1 0 397,0 z"
         transform="translate(198.5,198.5)"
         id="path13" /></clipPath><clipPath
       id="clipPath14"><path
         d="m 198.5,0 a 198.5,198.5 0 1 0 -397,0 198.5,198.5 0 1 0 397,0 z"
         transform="translate(198.5,198.5)"
         id="path14" /></clipPath><clipPath
       id="clipPath15"><path
         d="m 198.5,0 a 198.5,198.5 0 1 0 -397,0 198.5,198.5 0 1 0 397,0 z"
         transform="translate(198.5,198.5)"
         id="path15" /></clipPath><clipPath
       id="clipPath16"><path
         d="m 198.5,0 a 198.5,198.5 0 1 0 -397,0 198.5,198.5 0 1 0 397,0 z"
         transform="translate(198.5,198.5)"
         id="path16" /></clipPath><clipPath
       id="clipPath17"><path
         d="m 198.5,0 a 198.5,198.5 0 1 0 -397,0 198.5,198.5 0 1 0 397,0 z"
         transform="translate(198.5,198.5)"
         id="path17" /></clipPath><clipPath
       id="clipPath18"><path
         d="m 198.5,0 a 198.5,198.5 0 1 0 -397,0 198.5,198.5 0 1 0 397,0 z"
         transform="translate(198.5,198.5)"
         id="path18" /></clipPath><clipPath
       id="clipPath19"><path
         d="m 198.5,0 a 198.5,198.5 0 1 0 -397,0 198.5,198.5 0 1 0 397,0 z"
         transform="translate(198.5,198.5)"
         id="path19" /></clipPath><clipPath
       id="clipPath20"><path
         d="m 198.5,0 a 198.5,198.5 0 1 0 -397,0 198.5,198.5 0 1 0 397,0 z"
         transform="translate(198.5,198.5)"
         id="path20" /></clipPath><clipPath
       id="clipPath21"><path
         d="m 198.5,0 a 198.5,198.5 0 1 0 -397,0 198.5,198.5 0 1 0 397,0 z"
         transform="translate(198.5,198.5)"
         id="path21" /></clipPath><clipPath
       id="clipPath22"><path
         d="m 198.5,0 a 198.5,198.5 0 1 0 -397,0 198.5,198.5 0 1 0 397,0 z"
         transform="translate(198.5,198.5)"
         id="path22" /></clipPath><clipPath
       id="clipPath23"><path
         d="m 198.5,0 a 198.5,198.5 0 1 0 -397,0 198.5,198.5 0 1 0 397,0 z"
         transform="translate(198.5,198.5)"
         id="path23" /></clipPath><clipPath
       id="clipPath24"><path
         d="m 198.5,0 a 198.5,198.5 0 1 0 -397,0 198.5,198.5 0 1 0 397,0 z"
         transform="translate(198.5,198.5)"
         id="path24" /></clipPath><clipPath
       id="clipPath25"><path
         d="m 198.5,0 a 198.5,198.5 0 1 0 -397,0 198.5,198.5 0 1 0 397,0 z"
         transform="translate(198.5,198.5)"
         id="path25" /></clipPath><clipPath
       id="clipPath26"><path
         d="m 198.5,0 a 198.5,198.5 0 1 0 -397,0 198.5,198.5 0 1 0 397,0 z"
         transform="translate(198.5,198.5)"
         id="path26" /></clipPath><clipPath
       id="clipPath27"><path
         d="m 198.5,0 a 198.5,198.5 0 1 0 -397,0 198.5,198.5 0 1 0 397,0 z"
         transform="translate(198.5,198.5)"
         id="path27" /></clipPath><clipPath
       id="clipPath28"><path
         d="m 198.5,0 a 198.5,198.5 0 1 0 -397,0 198.5,198.5 0 1 0 397,0 z"
         transform="translate(198.5,198.5)"
         id="path28" /></clipPath><clipPath
       id="clipPath29"><path
         d="m 198.5,0 a 198.5,198.5 0 1 0 -397,0 198.5,198.5 0 1 0 397,0 z"
         transform="translate(198.5,198.5)"
         id="path29" /></clipPath><clipPath
       id="clipPath30"><path
         d="m 198.5,0 a 198.5,198.5 0 1 0 -397,0 198.5,198.5 0 1 0 397,0 z"
         transform="translate(198.5,198.5)"
         id="path30" /></clipPath><clipPath
       id="clipPath31"><path
         d="m 198.5,0 a 198.5,198.5 0 1 0 -397,0 198.5,198.5 0 1 0 397,0 z"
         transform="translate(198.5,198.5)"
         id="path31" /></clipPath><clipPath
       id="clipPath32"><path
         d="m 198.5,0 a 198.5,198.5 0 1 0 -397,0 198.5,198.5 0 1 0 397,0 z"
         transform="translate(198.5,198.5)"
         id="path32" /></clipPath><clipPath
       id="clipPath33"><path
         d="m 198.5,0 a 198.5,198.5 0 1 0 -397,0 198.5,198.5 0 1 0 397,0 z"
         transform="translate(198.5,198.5)"
         id="path33" /></clipPath><clipPath
       id="clipPath34"><path
         d="m 198.5,0 a 198.5,198.5 0 1 0 -397,0 198.5,198.5 0 1 0 397,0 z"
         transform="translate(198.5,198.5)"
         id="path34" /></clipPath><clipPath
       id="clipPath35"><path
         d="m 198.5,0 a 198.5,198.5 0 1 0 -397,0 198.5,198.5 0 1 0 397,0 z"
         transform="translate(198.5,198.5)"
         id="path35" /></clipPath><clipPath
       id="clipPath36"><path
         d="m 198.5,0 a 198.5,198.5 0 1 0 -397,0 198.5,198.5 0 1 0 397,0 z"
         transform="translate(198.5,198.5)"
         id="path36" /></clipPath><clipPath
       id="clipPath37"><path
         d="m 198.5,0 a 198.5,198.5 0 1 0 -397,0 198.5,198.5 0 1 0 397,0 z"
         transform="translate(198.5,198.5)"
         id="path37" /></clipPath><clipPath
       id="clipPath38"><path
         d="m 198.5,0 a 198.5,198.5 0 1 0 -397,0 198.5,198.5 0 1 0 397,0 z"
         transform="translate(198.5,198.5)"
         id="path38" /></clipPath><clipPath
       id="clipPath39"><path
         d="m 198.5,0 a 198.5,198.5 0 1 0 -397,0 198.5,198.5 0 1 0 397,0 z"
         transform="translate(198.5,198.5)"
         id="path39" /></clipPath><clipPath
       id="clipPath40"><path
         d="m 198.5,0 a 198.5,198.5 0 1 0 -397,0 198.5,198.5 0 1 0 397,0 z"
         transform="translate(198.5,198.5)"
         id="path40" /></clipPath><clipPath
       id="clipPath41"><path
         d="m 198.5,0 a 198.5,198.5 0 1 0 -397,0 198.5,198.5 0 1 0 397,0 z"
         transform="translate(198.5,198.5)"
         id="path41" /></clipPath><clipPath
       id="clipPath42"><path
         d="m 198.5,0 a 198.5,198.5 0 1 0 -397,0 198.5,198.5 0 1 0 397,0 z"
         transform="translate(198.5,198.5)"
         id="path42" /></clipPath><clipPath
       id="clipPath43"><path
         d="m 198.5,0 a 198.5,198.5 0 1 0 -397,0 198.5,198.5 0 1 0 397,0 z"
         transform="translate(198.5,198.5)"
         id="path43" /></clipPath><clipPath
       id="clipPath44"><path
         d="m 198.5,0 a 198.5,198.5 0 1 0 -397,0 198.5,198.5 0 1 0 397,0 z"
         transform="translate(198.5,198.5)"
         id="path44" /></clipPath><clipPath
       id="clipPath45"><path
         d="m 198.5,0 a 198.5,198.5 0 1 0 -397,0 198.5,198.5 0 1 0 397,0 z"
         transform="translate(198.5,198.5)"
         id="path45" /></clipPath><clipPath
       id="clipPath46"><path
         d="m 198.5,0 a 198.5,198.5 0 1 0 -397,0 198.5,198.5 0 1 0 397,0 z"
         transform="translate(198.5,198.5)"
         id="path46" /></clipPath><clipPath
       id="clipPath47"><path
         d="m 198.5,0 a 198.5,198.5 0 1 0 -397,0 198.5,198.5 0 1 0 397,0 z"
         transform="translate(198.5,198.5)"
         id="path47" /></clipPath><clipPath
       id="clipPath48"><path
         d="m 198.5,0 a 198.5,198.5 0 1 0 -397,0 198.5,198.5 0 1 0 397,0 z"
         transform="translate(198.5,198.5)"
         id="path48" /></clipPath><clipPath
       id="clipPath49"><path
         d="m 198.5,0 a 198.5,198.5 0 1 0 -397,0 198.5,198.5 0 1 0 397,0 z"
         transform="translate(198.5,198.5)"
         id="path49" /></clipPath><clipPath
       id="clipPath50"><path
         d="m 198.5,0 a 198.5,198.5 0 1 0 -397,0 198.5,198.5 0 1 0 397,0 z"
         transform="translate(198.5,198.5)"
         id="path50" /></clipPath><clipPath
       id="clipPath51"><path
         d="m 198.5,0 a 198.5,198.5 0 1 0 -397,0 198.5,198.5 0 1 0 397,0 z"
         transform="translate(198.5,198.5)"
         id="path51" /></clipPath><clipPath
       id="clipPath52"><path
         d="m 198.5,0 a 198.5,198.5 0 1 0 -397,0 198.5,198.5 0 1 0 397,0 z"
         transform="translate(198.5,198.5)"
         id="path52" /></clipPath><clipPath
       id="clipPath53"><path
         d="m 198.5,0 a 198.5,198.5 0 1 0 -397,0 198.5,198.5 0 1 0 397,0 z"
         transform="translate(198.5,198.5)"
         id="path53" /></clipPath><clipPath
       id="clipPath54"><path
         d="m 198.5,0 a 198.5,198.5 0 1 0 -397,0 198.5,198.5 0 1 0 397,0 z"
         transform="translate(198.5,198.5)"
         id="path54" /></clipPath><clipPath
       id="clipPath55"><path
         d="m 198.5,0 a 198.5,198.5 0 1 0 -397,0 198.5,198.5 0 1 0 397,0 z"
         transform="translate(198.5,198.5)"
         id="path55" /></clipPath><clipPath
       id="clipPath56"><path
         d="m 198.5,0 a 198.5,198.5 0 1 0 -397,0 198.5,198.5 0 1 0 397,0 z"
         transform="translate(198.5,198.5)"
         id="path56" /></clipPath><clipPath
       id="clipPath57"><path
         d="m 198.5,0 a 198.5,198.5 0 1 0 -397,0 198.5,198.5 0 1 0 397,0 z"
         transform="translate(198.5,198.5)"
         id="path57" /></clipPath><clipPath
       id="clipPath58"><path
         d="m 198.5,0 a 198.5,198.5 0 1 0 -397,0 198.5,198.5 0 1 0 397,0 z"
         transform="translate(198.5,198.5)"
         id="path58" /></clipPath><clipPath
       id="clipPath59"><path
         d="m 198.5,0 a 198.5,198.5 0 1 0 -397,0 198.5,198.5 0 1 0 397,0 z"
         transform="translate(198.5,198.5)"
         id="path59" /></clipPath><clipPath
       id="clipPath60"><path
         d="m 198.5,0 a 198.5,198.5 0 1 0 -397,0 198.5,198.5 0 1 0 397,0 z"
         transform="translate(198.5,198.5)"
         id="path60" /></clipPath><clipPath
       id="clipPath61"><path
         d="m 198.5,0 a 198.5,198.5 0 1 0 -397,0 198.5,198.5 0 1 0 397,0 z"
         transform="translate(198.5,198.5)"
         id="path61" /></clipPath><clipPath
       id="clipPath62"><path
         d="m 198.5,0 a 198.5,198.5 0 1 0 -397,0 198.5,198.5 0 1 0 397,0 z"
         transform="translate(198.5,198.5)"
         id="path62" /></clipPath><clipPath
       id="clipPath63"><path
         d="m 198.5,0 a 198.5,198.5 0 1 0 -397,0 198.5,198.5 0 1 0 397,0 z"
         transform="translate(198.5,198.5)"
         id="path63" /></clipPath><clipPath
       id="clipPath64"><path
         d="m 198.5,0 a 198.5,198.5 0 1 0 -397,0 198.5,198.5 0 1 0 397,0 z"
         transform="translate(198.5,198.5)"
         id="path64" /></clipPath><clipPath
       id="clipPath65"><path
         d="m 198.5,0 a 198.5,198.5 0 1 0 -397,0 198.5,198.5 0 1 0 397,0 z"
         transform="translate(198.5,198.5)"
         id="path65" /></clipPath><clipPath
       id="clipPath66"><path
         d="m 198.5,0 a 198.5,198.5 0 1 0 -397,0 198.5,198.5 0 1 0 397,0 z"
         transform="translate(198.5,198.5)"
         id="path66" /></clipPath><clipPath
       id="clipPath67"><path
         d="m 198.5,0 a 198.5,198.5 0 1 0 -397,0 198.5,198.5 0 1 0 397,0 z"
         transform="translate(198.5,198.5)"
         id="path67" /></clipPath><clipPath
       id="clipPath68"><path
         d="m 198.5,0 a 198.5,198.5 0 1 0 -397,0 198.5,198.5 0 1 0 397,0 z"
         transform="translate(198.5,198.5)"
         id="path68" /></clipPath><clipPath
       id="clipPath69"><path
         d="m 198.5,0 a 198.5,198.5 0 1 0 -397,0 198.5,198.5 0 1 0 397,0 z"
         transform="translate(198.5,198.5)"
         id="path69" /></clipPath><clipPath
       id="clipb0e9c7xyplot"
       class="plotclip"><rect
         width="51.722221"
         height="388"
         id="rect2-7"
         x="0"
         y="0" /></clipPath><clipPath
       id="clipb0e9c7x2y2plot"
       class="plotclip"><rect
         width="51.722221"
         height="388"
         id="rect3-7"
         x="0"
         y="0" /></clipPath><clipPath
       id="clipb0e9c7x3y3plot"
       class="plotclip"><rect
         width="51.722221"
         height="388"
         id="rect4-4"
         x="0"
         y="0" /></clipPath><clipPath
       id="clipb0e9c7x4y4plot"
       class="plotclip"><rect
         width="51.722221"
         height="388"
         id="rect5-2"
         x="0"
         y="0" /></clipPath><clipPath
       id="clipb0e9c7x5y5plot"
       class="plotclip"><rect
         width="51.722221"
         height="388"
         id="rect6-9"
         x="0"
         y="0" /></clipPath><clipPath
       id="clipb0e9c7x6y6plot"
       class="plotclip"><rect
         width="51.722221"
         height="388"
         id="rect7-8"
         x="0"
         y="0" /></clipPath><clipPath
       id="clipb0e9c7x7y7plot"
       class="plotclip"><rect
         width="51.722221"
         height="388"
         id="rect8-4"
         x="0"
         y="0" /></clipPath><clipPath
       id="clipb0e9c7x8y8plot"
       class="plotclip"><rect
         width="51.722221"
         height="388"
         id="rect9-1"
         x="0"
         y="0" /></clipPath><clipPath
       id="clipb0e9c7x9y9plot"
       class="plotclip"><rect
         width="51.722221"
         height="388"
         id="rect10-2"
         x="0"
         y="0" /></clipPath><clipPath
       id="clipb0e9c7x10y10plot"
       class="plotclip"><rect
         width="51.722221"
         height="388"
         id="rect11-7"
         x="0"
         y="0" /></clipPath><clipPath
       id="clipb0e9c7x11y11plot"
       class="plotclip"><rect
         width="51.722221"
         height="388"
         id="rect12-11"
         x="0"
         y="0" /></clipPath><clipPath
       id="clipb0e9c7x12y12plot"
       class="plotclip"><rect
         width="51.722221"
         height="388"
         id="rect13-73"
         x="0"
         y="0" /></clipPath><clipPath
       id="legendb0e9c7"><rect
         width="86"
         height="48"
         x="0"
         y="0"
         id="rect787" /></clipPath><clipPath
       id="clipa4522epolar-for-traces"><path
         d="m 198.5,0 a 198.5,198.5 0 1 0 -397,0 198.5,198.5 0 1 0 397,0 z"
         transform="translate(198.5,198.5)"
         id="path1-9" /></clipPath><clipPath
       id="legenda4522e"><rect
         width="129"
         height="200"
         x="0"
         y="0"
         id="rect243" /></clipPath><clipPath
       id="clip0e3e17xyplot"
       class="plotclip"><rect
         width="753"
         height="270"
         id="rect2-3"
         x="0"
         y="0" /></clipPath><clipPath
       id="clip417dc0xyplot"
       class="plotclip"><rect
         width="623"
         height="270"
         id="rect2-55"
         x="0"
         y="0" /></clipPath><linearGradient
       x1="1770.3262"
       x2="1770.3262"
       y1="82.340755"
       y2="0"
       id="g417dc0-cb5272ec"
       gradientTransform="scale(0.36433963,2.7446918)"
       gradientUnits="userSpaceOnUse"><stop
         offset="0%"
         stop-color="rgb(43, 41, 119)"
         stop-opacity="1"
         id="stop5" /><stop
         offset="5.55%"
         stop-color="rgb(43, 41, 119)"
         stop-opacity="1"
         id="stop6" /><stop
         offset="5.55%"
         stop-color="rgb(56, 66, 155)"
         stop-opacity="1"
         id="stop7" /><stop
         offset="16.65%"
         stop-color="rgb(56, 66, 155)"
         stop-opacity="1"
         id="stop8" /><stop
         offset="16.65%"
         stop-color="rgb(66, 83, 164)"
         stop-opacity="1"
         id="stop9" /><stop
         offset="27.75%"
         stop-color="rgb(66, 83, 164)"
         stop-opacity="1"
         id="stop10" /><stop
         offset="27.75%"
         stop-color="rgb(75, 98, 173)"
         stop-opacity="1"
         id="stop11" /><stop
         offset="38.85%"
         stop-color="rgb(75, 98, 173)"
         stop-opacity="1"
         id="stop12" /><stop
         offset="38.85%"
         stop-color="rgb(104, 184, 231)"
         stop-opacity="1"
         id="stop13" /><stop
         offset="49.95%"
         stop-color="rgb(104, 184, 231)"
         stop-opacity="1"
         id="stop14" /><stop
         offset="49.95%"
         stop-color="rgb(83, 184, 72)"
         stop-opacity="1"
         id="stop15" /><stop
         offset="61.05%"
         stop-color="rgb(83, 184, 72)"
         stop-opacity="1"
         id="stop16" /><stop
         offset="61.05%"
         stop-color="rgb(238, 133, 34)"
         stop-opacity="1"
         id="stop17" /><stop
         offset="72.15%"
         stop-color="rgb(238, 133, 34)"
         stop-opacity="1"
         id="stop18" /><stop
         offset="72.15%"
         stop-color="rgb(234, 44, 36)"
         stop-opacity="1"
         id="stop19" /><stop
         offset="83.25%"
         stop-color="rgb(234, 44, 36)"
         stop-opacity="1"
         id="stop20" /><stop
         offset="83.25%"
         stop-color="rgb(177, 34, 36)"
         stop-opacity="1"
         id="stop21" /><stop
         offset="94.35%"
         stop-color="rgb(177, 34, 36)"
         stop-opacity="1"
         id="stop22" /><stop
         offset="94.35%"
         stop-color="rgb(117, 22, 19)"
         stop-opacity="1"
         id="stop23" /><stop
         offset="100%"
         stop-color="rgb(117, 22, 19)"
         stop-opacity="1"
         id="stop24" /></linearGradient></defs><g
     inkscape:label="Layer 1"
     inkscape:groupmode="layer"
     id="layer1"><text
       xml:space="preserve"
       style="font-size:12.7px;line-height:1;font-family:Sans;-inkscape-font-specification:Sans;text-align:center;writing-mode:lr-tb;direction:ltr;text-anchor:middle;fill:#000000;fill-opacity:1;stroke:none;stroke-width:1.00012;stroke-linecap:square;stroke-opacity:1"
       x="70.731392"
       y="19.71549"
       id="text2"><tspan
         sodipodi:role="line"
         id="tspan2"
         style="font-size:12.7px;fill:#000000;fill-opacity:1;stroke:none;stroke-width:1.00012"
         x="70.731392"
         y="19.71549">Climate Analysis of X</tspan></text><text
       xml:space="preserve"
       transform="scale(0.26458333)"
       id="text8"
       style="font-size:21.3333px;line-height:1;font-family:Sans;-inkscape-font-specification:Sans;text-align:start;writing-mode:lr-tb;direction:ltr;white-space:pre;shape-inside:url(#rect9);display:inline;fill:#000000;fill-opacity:1;stroke:none;stroke-width:3.78;stroke-linecap:square;stroke-opacity:1"
       x="-20.65062"
       y="0" /><text
       xml:space="preserve"
       style="font-size:14.1111px;line-height:1.5;font-family:Sans;-inkscape-font-specification:Sans;text-align:start;writing-mode:lr-tb;direction:ltr;text-anchor:start;fill:none;fill-opacity:1;stroke:#000000;stroke-width:1.00012;stroke-linecap:square;stroke-opacity:1"
       x="51.783463"
       y="160.58104"
       id="text21"><tspan
         sodipodi:role="line"
         id="tspan21"
         style="stroke-width:1.00012"
         x="51.783463"
         y="160.58104" /></text><rect
       style="fill:none;stroke:#000000;stroke-width:1;stroke-linecap:square;stroke-opacity:1"
       id="rect4827"
       width="400"
       height="260.23526"
       x="10"
       y="27.26478" /></g></svg>
